<?xml version="1.0" encoding="UTF-8" standalone="no"?>
<!-- Created with Inkscape (http://www.inkscape.org/) -->

<svg
   version="1.1"
   id="svg1"
   width="1024"
   height="1024"
   viewBox="0 0 1024 1024"
   sodipodi:docname="el_logo.svg"
   inkscape:version="1.3.2 (091e20e, 2023-11-25, custom)"
   xmlns:inkscape="http://www.inkscape.org/namespaces/inkscape"
   xmlns:sodipodi="http://sodipodi.sourceforge.net/DTD/sodipodi-0.dtd"
   xmlns="http://www.w3.org/2000/svg"
   xmlns:svg="http://www.w3.org/2000/svg">
  <defs
     id="defs1" />
  <sodipodi:namedview
     id="namedview1"
     pagecolor="#ffffff"
     bordercolor="#000000"
     borderopacity="0.25"
     inkscape:showpageshadow="2"
     inkscape:pageopacity="0.0"
     inkscape:pagecheckerboard="0"
     inkscape:deskcolor="#d1d1d1"
     inkscape:zoom="0.76855469"
     inkscape:cx="512"
     inkscape:cy="511.34943"
     inkscape:window-width="1939"
     inkscape:window-height="1250"
     inkscape:window-x="183"
     inkscape:window-y="256"
     inkscape:window-maximized="0"
     inkscape:current-layer="g1" />
  <g
     inkscape:groupmode="layer"
     inkscape:label="Image"
     id="g1">
    <g
       id="g2"
       transform="translate(5.2045743,-3.9034307)">
      <path
         style="fill:#b9b9b9;fill-opacity:1"
         d="m 488.8125,886.31689 c 0.72187,-0.28887 1.58438,-0.25335 1.91667,0.0789 0.33229,0.33229 -0.25834,0.56864 -1.3125,0.52522 -1.16495,-0.048 -1.4019,-0.28494 -0.60417,-0.60416 z m -47,-135 c 0.72187,-0.28887 1.58438,-0.25335 1.91667,0.0789 0.33229,0.33229 -0.25834,0.56864 -1.3125,0.52522 -1.16495,-0.048 -1.4019,-0.28494 -0.60417,-0.60416 z m 15,0 c 0.72187,-0.28887 1.58438,-0.25335 1.91667,0.0789 0.33229,0.33229 -0.25834,0.56864 -1.3125,0.52522 -1.16495,-0.048 -1.4019,-0.28494 -0.60417,-0.60416 z M 626.27236,708 c 0,-2.475 0.19502,-3.4875 0.43337,-2.25 0.23836,1.2375 0.23836,3.2625 0,4.5 -0.23835,1.2375 -0.43337,0.225 -0.43337,-2.25 z m -0.0774,-9.5 c 0.0204,-1.65 0.2445,-2.20394 0.49804,-1.23097 0.25354,0.97297 0.23687,2.32297 -0.0371,3 -0.27393,0.67703 -0.48137,-0.11903 -0.46099,-1.76903 z M 626.4025,679 c 0,-8.525 0.15337,-12.0125 0.34082,-7.75 0.18745,4.2625 0.18745,11.2375 0,15.5 -0.18745,4.2625 -0.34082,0.775 -0.34082,-7.75 z M 128.07895,531.41667 c 0.048,-1.16495 0.28494,-1.4019 0.60416,-0.60417 0.28887,0.72187 0.25335,1.58438 -0.0789,1.91667 -0.3323,0.33229 -0.56864,-0.25834 -0.52522,-1.3125 z M 788.19495,503.5 c 0.0204,-1.65 0.2445,-2.20394 0.49804,-1.23097 0.25354,0.97297 0.23687,2.32297 -0.0371,3 -0.27393,0.67703 -0.48137,-0.11903 -0.46099,-1.76903 z m 0,-7 c 0.0204,-1.65 0.2445,-2.20394 0.49804,-1.23097 0.25354,0.97297 0.23687,2.32297 -0.0371,3 -0.27393,0.67703 -0.48137,-0.11903 -0.46099,-1.76903 z m -161.83999,-240 c -0.003,-4.95 0.16605,-7.10108 0.37577,-4.78017 0.20972,2.3209 0.21222,6.3709 0.006,9 -0.20667,2.62909 -0.37827,0.73017 -0.38131,-4.21983 z"
         id="path8" />
      <path
         style="fill:#a3a3a3;fill-opacity:1"
         d="m 497.15789,883 c 0,-1.375 0.22698,-1.9375 0.50439,-1.25 0.27741,0.6875 0.27741,1.8125 0,2.5 -0.27741,0.6875 -0.50439,0.125 -0.50439,-1.25 z m 0.29831,-43 c 0,-22.275 0.13167,-31.3875 0.29261,-20.25 0.16093,11.1375 0.16093,29.3625 0,40.5 -0.16094,11.1375 -0.29261,2.025 -0.29261,-20.25 z M 626.33621,719 c 0,-4.125 0.17651,-5.8125 0.39226,-3.75 0.21574,2.0625 0.21574,5.4375 0,7.5 -0.21575,2.0625 -0.39226,0.375 -0.39226,-3.75 z m -0.25726,-16.58333 c 0.048,-1.16495 0.28494,-1.4019 0.60416,-0.60417 0.28887,0.72187 0.25335,1.58438 -0.0789,1.91667 -0.33229,0.33229 -0.56864,-0.25834 -0.52522,-1.3125 z m 162,-195 c 0.048,-1.16495 0.28494,-1.4019 0.60416,-0.60417 0.28887,0.72187 0.25335,1.58438 -0.0789,1.91667 -0.33229,0.33229 -0.56864,-0.25834 -0.52522,-1.3125 z m 108,-14 c 0.048,-1.16495 0.28494,-1.4019 0.60416,-0.60417 0.28887,0.72187 0.25335,1.58438 -0.0789,1.91667 -0.33229,0.33229 -0.56864,-0.25834 -0.52522,-1.3125 z M 430.75,271.25131 c 10.5875,-0.16197 27.9125,-0.16197 38.5,0 10.5875,0.16197 1.925,0.2945 -19.25,0.2945 -21.175,0 -29.8375,-0.13253 -19.25,-0.2945 z M 526.46835,190.5 c -1.4e-4,-31.9 0.12627,-45.09463 0.28092,-29.32139 0.15464,15.77323 0.15475,41.87323 2.5e-4,58 -0.15451,16.12676 -0.28103,3.22139 -0.28117,-28.67861 z m 99.88106,49.5 c 0,-4.675 0.17226,-6.5875 0.3828,-4.25 0.21053,2.3375 0.21053,6.1625 0,8.5 -0.21054,2.3375 -0.3828,0.425 -0.3828,-4.25 z"
         id="path7" />
      <path
         style="fill:#8c8c8c;fill-opacity:1"
         d="m 493.8125,886.31689 c 0.72187,-0.28887 1.58438,-0.25335 1.91667,0.0789 0.33229,0.33229 -0.25834,0.56864 -1.3125,0.52522 -1.16495,-0.048 -1.4019,-0.28494 -0.60417,-0.60416 z M 497.43244,776 c 0,-13.475 0.14155,-18.9875 0.31456,-12.25 0.17301,6.7375 0.17301,17.7625 0,24.5 -0.17301,6.7375 -0.31456,1.225 -0.31456,-12.25 z M 128.07895,526.41667 c 0.048,-1.16495 0.28494,-1.4019 0.60416,-0.60417 0.28887,0.72187 0.25335,1.58438 -0.0789,1.91667 -0.3323,0.33229 -0.56864,-0.25834 -0.52522,-1.3125 z M 896.28601,514.5 c 0.008,-2.75 0.20172,-3.75631 0.43157,-2.23625 0.22986,1.52006 0.22371,3.77006 -0.0136,5 -0.23736,1.22994 -0.42542,-0.0137 -0.41792,-2.76375 z M 526.42179,268 c 0,-11.275 0.14584,-15.8875 0.32409,-10.25 0.17825,5.6375 0.17825,14.8625 0,20.5 -0.17825,5.6375 -0.32409,1.025 -0.32409,-10.25 z m -118.15276,3.30701 c 0.97297,-0.25354 2.32297,-0.23687 3,0.0371 0.67703,0.27393 -0.11903,0.48137 -1.76903,0.46099 -1.65,-0.0204 -2.20394,-0.2445 -1.23097,-0.49804 z m 81.98097,-0.0233 c 1.5125,-0.22913 3.9875,-0.22913 5.5,0 1.5125,0.22912 0.275,0.41659 -2.75,0.41659 -3.025,0 -4.2625,-0.18747 -2.75,-0.41659 z M 626.34941,224 c 0,-4.675 0.17226,-6.5875 0.3828,-4.25 0.21053,2.3375 0.21053,6.1625 0,8.5 -0.21054,2.3375 -0.3828,0.425 -0.3828,-4.25 z"
         id="path6" />
      <path
         style="fill:#767676;fill-opacity:1"
         d="m 896.32814,503.5 c 0.004,-3.85 0.18518,-5.30246 0.40166,-3.2277 0.21647,2.07477 0.21284,5.22477 -0.008,7 -0.22091,1.77524 -0.39803,0.0777 -0.39359,-3.7723 z M 526.45974,332 c 0,-24.475 0.13017,-34.4875 0.28926,-22.25 0.15909,12.2375 0.15909,32.2625 0,44.5 -0.15909,12.2375 -0.28926,2.225 -0.28926,-22.25 z M 403.75,271.33772 c 0.6875,-0.27741 1.8125,-0.27741 2.5,0 0.6875,0.27741 0.125,0.50439 -1.25,0.50439 -1.375,0 -1.9375,-0.22698 -1.25,-0.50439 z M 626.38176,204.5 c 0.002,-6.6 0.16382,-9.16987 0.35965,-5.71081 0.19583,3.45905 0.19422,8.85905 -0.004,12 -0.19781,3.14094 -0.35803,0.31081 -0.35606,-6.28919 z"
         id="path5" />
      <path
         style="fill:#606060;fill-opacity:1"
         d="m 793,761.62244 c 0,-0.20765 0.7875,-0.99515 1.75,-1.75 1.58606,-1.24387 1.62143,-1.2085 0.37756,0.37756 C 793.82119,761.91575 793,762.44548 793,761.62244 Z M 315.40499,694.75 313.5,692.5 l 2.25,1.90499 c 2.11444,1.79022 2.70524,2.59501 1.90499,2.59501 -0.18976,0 -1.20226,-1.0125 -2.25,-2.25 z M 128.15789,521 c 0,-1.375 0.22698,-1.9375 0.50439,-1.25 0.27741,0.6875 0.27741,1.8125 0,2.5 -0.27741,0.6875 -0.50439,0.125 -0.50439,-1.25 z m 0,-16 c 0,-1.375 0.22698,-1.9375 0.50439,-1.25 0.27741,0.6875 0.27741,1.8125 0,2.5 -0.27741,0.6875 -0.50439,0.125 -0.50439,-1.25 z M 361.5,438 l -107,-0.51358 106.69098,-0.24321 C 431.50311,437.08293 468.0927,437.34097 468.5,438 c 0.33992,0.55 0.47898,0.89055 0.30902,0.75679 C 468.63906,438.62302 420.35,438.28247 361.5,438 Z m 164.89739,-48 c 0,-7.975 0.1553,-11.2375 0.34512,-7.25 0.18981,3.9875 0.18981,10.5125 0,14.5 -0.18982,3.9875 -0.34512,0.725 -0.34512,-7.25 z M 400.8125,271.31689 c 0.72187,-0.28887 1.58438,-0.25335 1.91667,0.0789 0.33229,0.33229 -0.25834,0.56864 -1.3125,0.52522 -1.16495,-0.048 -1.4019,-0.28494 -0.60417,-0.60416 z M 626.28601,188.5 c 0.008,-2.75 0.20172,-3.75631 0.43157,-2.23625 0.22986,1.52006 0.22371,3.77006 -0.0136,5 -0.23736,1.22994 -0.42542,-0.0137 -0.41792,-2.76375 z"
         id="path4" />
      <path
         style="fill:#494949;fill-opacity:1"
         d="m 229.87244,765.25 c -1.24387,-1.58606 -1.2085,-1.62143 0.37756,-0.37756 0.9625,0.75485 1.75,1.54235 1.75,1.75 0,0.82304 -0.82119,0.29331 -2.12756,-1.37244 z M 468.46835,496.5 c -1.4e-4,-31.9 0.12627,-45.09463 0.28092,-29.32139 0.15464,15.77323 0.15475,41.87323 2.5e-4,58 C 468.59501,541.30537 468.46849,528.4 468.46835,496.5 Z M 128.32007,513 c 0,-3.575 0.1815,-5.0375 0.40333,-3.25 0.22182,1.7875 0.22182,4.7125 0,6.5 -0.22183,1.7875 -0.40333,0.325 -0.40333,-3.25 z M 526.15789,406 c 0,-1.375 0.22698,-1.9375 0.50439,-1.25 0.27741,0.6875 0.27741,1.8125 0,2.5 -0.27741,0.6875 -0.50439,0.125 -0.50439,-1.25 z M 498.47211,198 c 0,-36.575 0.12484,-51.5375 0.27742,-33.25 0.15259,18.2875 0.15259,48.2125 0,66.5 -0.15258,18.2875 -0.27742,3.325 -0.27742,-33.25 z m 127.80025,-18 c 0,-2.475 0.19502,-3.4875 0.43337,-2.25 0.23836,1.2375 0.23836,3.2625 0,4.5 -0.23835,1.2375 -0.43337,0.225 -0.43337,-2.25 z"
         id="path3" />
      <path
         style="fill:#333333;fill-opacity:1"
         d="M 468.27172,884.44312 C 399.67235,876.95772 330.30859,849.04702 276.5,807.27773 214.3193,759.00953 165.45572,688.71769 143.58976,616.08209 133.64535,583.04815 129.93933,558.57417 129.2675,521.5 c -0.55097,-30.40429 0.31431,-43.10437 4.64194,-68.13162 C 141.70117,408.3077 151.84685,376.45825 170.50088,338.5 204.8022,268.70178 258.14968,213.57899 327.5,176.27623 367.05693,154.99901 408.81359,141.55696 454,135.55414 465.70721,133.99888 488.5665,132 494.64522,132 H 498 v 69.41759 69.4176 l -53.75,0.42458 c -51.09434,0.40362 -54.16146,0.53138 -62.07782,2.58587 -21.96447,5.70032 -40.68309,16.91953 -61.05413,36.59347 -29.06392,28.06934 -51.10032,63.72453 -65.02424,105.21006 -2.74143,8.16796 -5.28412,16.53833 -5.65041,18.60083 L 249.77742,438 H 358.88871 468 V 496.5 555 H 356 c -74.60937,0 -112,0.33659 -112,1.00823 0,0.55452 1.09727,5.65207 2.43838,11.32788 17.20092,72.7973 63.57334,136.46253 120.21765,165.04821 24.99633,12.61445 47.02189,18.18388 76.34397,19.30448 17.39002,0.6646 29.39697,-0.43205 44.25,-4.04156 L 497,745.27785 V 815.63892 886 l -8.25,-0.11128 c -4.5375,-0.0612 -13.75273,-0.71172 -20.47828,-1.4456 z m 58.0937,-374.99962 c 0.3824,-207.26064 0.9151,-377.05735 1.18376,-377.32601 1.02975,-1.02976 32.24221,2.07608 58.51425,5.82254 15.09011,2.15188 30.36157,4.21103 33.93657,4.57589 l 6.5,0.66337 -0.30271,291.41036 C 625.94646,676.05812 626.12175,726 627.2201,726 c 2.07273,0 15.70874,-5.4487 27.00545,-10.79088 C 700.26353,693.4379 738.14146,654.04084 764.4298,600.58503 780.50202,567.9031 787.28313,542.13636 788.66408,508.5 790.10255,473.46253 782.20607,443.25747 763.88544,413.71854 754.14528,398.01417 740.56459,382.53626 727,371.6802 c -4.125,-3.30133 -7.36508,-6.44717 -7.20018,-6.99076 0.41881,-1.38062 47.76046,-71.69019 57.6974,-85.68944 4.4896,-6.325 9.90861,-14.425 12.04225,-18 2.13363,-3.575 3.9916,-6.669 4.12882,-6.87556 0.69895,-1.05211 18.3879,19.84762 29.5177,34.87556 38.43088,51.89106 61.14563,107.27347 70.40047,171.64829 2.12633,14.7903 3.01273,60.5903 1.4926,77.12201 -3.78499,41.16255 -14.21502,79.77783 -32.51242,120.37138 -14.07955,31.23606 -37.90702,68.26371 -59.61463,92.64056 -19.66802,22.08647 -33.72603,35.68328 -52.73633,51.00623 -61.36317,49.4608 -135.25462,78.3708 -214.13061,83.77851 l -10.41493,0.71405 z"
         id="path2" />
    </g>
  </g>
</svg>
